<svg width="26" height="25" viewBox="0 0 26 25" fill="none" xmlns="http://www.w3.org/2000/svg">
<path d="M7.70955 0.216424C6.47856 -0.0721413 5.19753 -0.0721413 3.96655 0.216424C3.17596 0.401845 2.45284 0.80432 1.87864 1.37852C1.30444 1.95272 0.901967 2.67584 0.716546 3.46642C0.427981 4.69741 0.427981 5.97844 0.716546 7.20942C0.901967 8.00001 1.30444 8.72313 1.87864 9.29733C2.45284 9.87153 3.17596 10.274 3.96655 10.4594C5.19753 10.748 6.47856 10.748 7.70955 10.4594C8.50013 10.274 9.22325 9.87153 9.79745 9.29733C10.3716 8.72313 10.7741 8.00001 10.9595 7.20942C11.2481 5.97844 11.2481 4.69741 10.9595 3.46642C10.7741 2.67584 10.3716 1.95272 9.79745 1.37852C9.22325 0.80432 8.50013 0.401845 7.70955 0.216424Z" fill="white"/>
<path d="M7.70955 14.5404C6.47856 14.2518 5.19753 14.2518 3.96655 14.5404C3.17596 14.7258 2.45284 15.1283 1.87864 15.7025C1.30444 16.2767 0.901967 16.9998 0.716546 17.7904C0.427981 19.0214 0.427981 20.3024 0.716546 21.5334C0.901967 22.324 1.30444 23.0471 1.87864 23.6213C2.45284 24.1955 3.17596 24.598 3.96655 24.7834C5.19753 25.072 6.47856 25.072 7.70955 24.7834C8.50013 24.598 9.22325 24.1955 9.79745 23.6213C10.3716 23.0471 10.7741 22.324 10.9595 21.5334C11.2481 20.3024 11.2481 19.0214 10.9595 17.7904C10.7741 16.9998 10.3716 16.2767 9.79745 15.7025C9.22325 15.1283 8.50013 14.7258 7.70955 14.5404Z" fill="white"/>
<path d="M22.0335 0.216424C20.8025 -0.0721413 19.5215 -0.0721413 18.2905 0.216424C17.4999 0.401845 16.7768 0.80432 16.2026 1.37852C15.6284 1.95272 15.2259 2.67584 15.0405 3.46642C14.752 4.69741 14.752 5.97844 15.0405 7.20942C15.2259 8.00001 15.6284 8.72313 16.2026 9.29733C16.7768 9.87153 17.4999 10.274 18.2905 10.4594C19.5215 10.748 20.8025 10.748 22.0335 10.4594C22.8241 10.274 23.5472 9.87153 24.1214 9.29733C24.6956 8.72313 25.0981 8.00001 25.2835 7.20942C25.5721 5.97844 25.5721 4.69741 25.2835 3.46642C25.0981 2.67584 24.6956 1.95272 24.1214 1.37852C23.5472 0.80432 22.8241 0.401845 22.0335 0.216424Z" fill="white"/>
<path d="M22.0335 14.5404C20.8025 14.2518 19.5215 14.2518 18.2905 14.5404C17.4999 14.7258 16.7768 15.1283 16.2026 15.7025C15.6284 16.2767 15.2259 16.9998 15.0405 17.7904C14.752 19.0214 14.752 20.3024 15.0405 21.5334C15.2259 22.324 15.6284 23.0471 16.2026 23.6213C16.7768 24.1955 17.4999 24.598 18.2905 24.7834C19.5215 25.072 20.8025 25.072 22.0335 24.7834C22.8241 24.598 23.5472 24.1955 24.1214 23.6213C24.6956 23.0471 25.0981 22.324 25.2835 21.5334C25.5721 20.3024 25.5721 19.0214 25.2835 17.7904C25.0981 16.9998 24.6956 16.2767 24.1214 15.7025C23.5472 15.1283 22.8241 14.7258 22.0335 14.5404Z" fill="white"/>
</svg>
