<svg width="19" height="10" viewBox="0 0 19 10" fill="none" xmlns="http://www.w3.org/2000/svg">
<path fill-rule="evenodd" clip-rule="evenodd" d="M10.3042 9.28887L18.321 1.22412C18.609 0.936088 18.609 0.504047 18.369 0.21602C18.0809 -0.0720068 17.6009 -0.0720068 17.3129 0.21602L9.77617 7.70472L9.0561 6.98466L8 8.04076L9.24812 9.28887C9.39213 9.43289 9.58415 9.48089 9.77617 9.48089C9.96819 9.48089 10.1602 9.43289 10.3042 9.28887ZM3.86436 9.33688C4.00838 9.48089 4.20039 9.52889 4.39241 9.52889C4.58443 9.52889 4.77645 9.43289 4.92046 9.33688L12.9852 1.27212C13.2732 0.984092 13.2732 0.504047 12.9852 0.21602C12.6972 -0.0720068 12.2171 -0.0720068 11.9291 0.21602L4.39241 7.75273L1.27212 4.63243C0.984092 4.34441 0.504047 4.34441 0.21602 4.63243C-0.0720068 4.92046 -0.0720068 5.40051 0.21602 5.68853L3.86436 9.33688Z" fill="#9D9D9D"/>
</svg>
